<svg width="63" height="59" viewBox="0 0 63 59" fill="none" xmlns="http://www.w3.org/2000/svg">
<g id="Triangle 3" clip-path="url(#clip0_662_676)">
<path id="Vector" d="M20.6425 59C20.9207 51.6868 21.1989 44.3761 21.4771 37.0629C14.318 24.7103 7.15898 12.3551 -4.95911e-05 0C6.88081 19.6658 13.7617 39.3342 20.6425 59Z" fill="url(#paint0_linear_662_676)"/>
<path id="Vector_2" d="M21.3684 37.098C35.2439 30.0559 49.1219 23.0137 63 15.9741C42.0008 10.6486 20.9992 5.32553 3.8147e-06 0C7.12111 12.3652 14.2447 24.7304 21.3658 37.098H21.3684Z" fill="url(#paint1_linear_662_676)"/>
<path id="Vector_3" d="M20.6401 58.9975C34.7584 44.6572 48.8792 30.3169 63 15.9741C49.1548 22.9987 35.3147 30.0233 21.467 37.0429C21.467 37.0504 21.472 37.0579 21.4771 37.0629C21.1989 44.3786 20.9208 51.6893 20.6401 59V58.9975Z" fill="url(#paint2_linear_662_676)"/>
</g>
<defs>
<linearGradient id="paint0_linear_662_676" x1="9.09545" y1="-12.5832" x2="41.891" y2="11.1174" gradientUnits="userSpaceOnUse">
<stop stop-color="#47B35D"/>
<stop offset="0.04" stop-color="#47B35D"/>
<stop offset="0.34" stop-color="#69D681"/>
<stop offset="0.6" stop-color="#80ED99"/>
<stop offset="0.79" stop-color="#80ED99"/>
<stop offset="0.91" stop-color="#80ED99"/>
</linearGradient>
<linearGradient id="paint1_linear_662_676" x1="26.6804" y1="-7.91208" x2="38.5225" y2="32.0124" gradientUnits="userSpaceOnUse">
<stop offset="0.09" stop-color="#80ED99"/>
<stop offset="0.21" stop-color="#80ED99"/>
<stop offset="0.4" stop-color="#80ED99"/>
<stop offset="0.66" stop-color="#69D681"/>
<stop offset="0.96" stop-color="#47B35D"/>
<stop offset="1" stop-color="#47B35D"/>
</linearGradient>
<linearGradient id="paint2_linear_662_676" x1="38.5794" y1="6.79778" x2="59.0069" y2="46.7242" gradientUnits="userSpaceOnUse">
<stop offset="0.09" stop-color="#80ED99"/>
<stop offset="0.21" stop-color="#80ED99"/>
<stop offset="0.4" stop-color="#80ED99"/>
<stop offset="0.66" stop-color="#69D681"/>
<stop offset="0.96" stop-color="#47B35D"/>
<stop offset="1" stop-color="#47B35D"/>
</linearGradient>
<clipPath id="clip0_662_676">
<rect width="63" height="59" fill="white" transform="matrix(-1 0 0 1 63 0)"/>
</clipPath>
</defs>
</svg>
